<svg xmlns="http://www.w3.org/2000/svg" width="13" height="13" fill="none"><path fill="#FFE600" d="m4.447 4.181-4.1.477a.396.396 0 0 0-.328.28.417.417 0 0 0 .109.425 3197.03 3197.03 0 0 0 3.05 2.912l-.836 4.235a.421.421 0 0 0 .153.413c.127.097.29.099.419.023 1.435-.855 3.585-2.141 3.585-2.141l3.584 2.142c.13.075.294.073.42-.024a.418.418 0 0 0 .152-.412l-.833-4.236 3.05-2.91c.11-.107.158-.27.11-.427a.393.393 0 0 0-.328-.279l-4.1-.478L6.853.24A.393.393 0 0 0 6.499 0c-.157 0-.292.1-.353.24L4.447 4.18Z"/></svg>